<?xml version="1.0" standalone="no"?>
<!DOCTYPE svg PUBLIC "-//W3C//DTD SVG 20010904//EN"
 "http://www.w3.org/TR/2001/REC-SVG-20010904/DTD/svg10.dtd">
<svg version="1.0" xmlns="http://www.w3.org/2000/svg"
 width="900.000000pt" height="900.000000pt" viewBox="0 0 900.000000 900.000000"
 preserveAspectRatio="xMidYMid meet">
<metadata>
Created by potrace 1.10, written by Peter Selinger 2001-2011
</metadata>
<g transform="translate(0.000000,900.000000) scale(0.100000,-0.100000)"
fill="#47EB8B" stroke="none">
<path d="M1107 7874 c-9 -9 -9 -6756 -1 -6778 6 -15 183 -16 1908 -16 1583 0
1932 3 2086 15 102 8 201 19 220 25 19 5 47 10 61 10 15 0 49 6 75 14 51 15
115 31 174 46 68 16 225 75 340 127 67 31 189 91 210 103 8 5 55 33 104 62
136 81 264 170 381 265 96 78 304 282 373 367 31 38 76 92 100 120 52 61 175
239 202 291 6 11 19 34 30 50 36 56 45 73 129 242 99 200 117 240 155 341 39
103 65 178 76 217 5 17 19 62 30 100 12 39 25 88 30 110 5 22 13 58 18 80 64
253 99 613 88 910 -10 295 -18 382 -58 585 -5 30 -13 75 -17 100 -4 25 -13 65
-20 90 -7 25 -19 69 -26 98 -32 117 -48 168 -60 197 -7 17 -16 45 -19 62 -4
18 -12 35 -17 38 -5 4 -9 13 -9 22 0 8 -7 31 -16 51 -8 21 -21 51 -28 67 -27
64 -46 105 -111 235 -36 74 -75 149 -86 165 -10 17 -23 39 -28 50 -5 11 -21
37 -35 58 -14 21 -26 40 -26 42 0 7 -150 225 -184 269 -119 149 -300 340 -446
472 -92 82 -356 273 -435 313 -11 6 -47 26 -80 45 -59 35 -148 79 -235 118
-25 11 -58 26 -73 34 -16 8 -35 14 -42 14 -7 0 -26 6 -42 14 -41 20 -153 56
-233 75 -19 5 -55 13 -80 19 -75 19 -190 39 -290 53 -75 11 -517 14 -2091 16
-1097 2 -1998 0 -2002 -3z m4013 -249 c161 -19 342 -55 435 -86 17 -6 44 -14
60 -19 46 -13 97 -31 127 -46 14 -8 31 -14 37 -14 19 0 185 -79 286 -136 33
-18 69 -38 80 -44 139 -74 403 -278 553 -427 70 -69 255 -282 280 -322 9 -14
19 -28 22 -31 6 -5 77 -107 95 -138 6 -9 22 -35 36 -57 14 -22 29 -47 32 -55
4 -8 16 -28 26 -45 20 -31 142 -275 167 -333 7 -18 20 -47 27 -65 8 -17 22
-52 32 -77 9 -25 23 -60 31 -78 8 -18 14 -37 14 -43 0 -6 6 -25 13 -42 13 -31
31 -90 61 -199 8 -29 22 -78 30 -109 9 -31 16 -64 16 -75 0 -10 6 -50 14 -89
43 -207 50 -294 50 -615 0 -252 -3 -338 -18 -430 -21 -138 -43 -259 -58 -320
-6 -25 -14 -61 -18 -80 -4 -19 -15 -62 -25 -95 -49 -169 -61 -207 -81 -247 -8
-14 -14 -33 -14 -41 0 -9 -6 -28 -14 -44 -8 -15 -25 -53 -36 -83 -217 -549
-606 -1038 -1083 -1364 -38 -25 -70 -46 -72 -46 -2 0 -23 -12 -47 -27 -69 -45
-80 -51 -133 -78 -27 -14 -57 -30 -65 -35 -23 -13 -175 -81 -243 -109 -58 -23
-204 -67 -312 -94 -137 -34 -250 -49 -440 -55 -272 -9 -3617 -8 -3633 2 -17
11 -18 6276 0 6294 9 9 428 12 1822 12 1567 0 1829 -2 1946 -15z"/>
<path d="M1705 7268 c-3 -7 -4 -1266 -3 -2798 l3 -2785 1635 -3 c1134 -2 1670
0 1750 8 188 18 336 52 544 127 47 17 133 55 196 88 25 13 63 33 85 44 59 30
272 177 357 246 94 77 257 239 333 334 65 79 181 237 192 261 4 8 19 33 34 55
71 107 239 443 239 478 0 7 4 17 9 23 5 5 14 25 19 44 10 34 21 67 47 140 7
19 21 64 30 100 9 36 23 87 31 114 8 26 14 56 14 65 0 9 6 48 14 86 38 181 46
281 46 585 0 329 -17 494 -72 715 -5 22 -13 58 -18 80 -15 68 -49 179 -76 243
-8 18 -14 40 -14 48 0 9 -6 28 -14 42 -8 15 -24 52 -36 82 -19 49 -124 265
-153 315 -158 273 -276 425 -487 631 -140 136 -328 279 -475 362 -72 40 -264
132 -277 132 -7 0 -22 7 -32 15 -11 8 -30 15 -42 15 -13 0 -25 4 -29 9 -3 5
-20 12 -38 16 -17 4 -50 12 -72 20 -54 18 -169 41 -290 60 -87 13 -328 15
-1773 15 -1329 0 -1674 -3 -1677 -12z m3426 -243 c118 -19 236 -44 269 -57 14
-6 39 -14 55 -19 73 -19 285 -115 380 -172 106 -64 282 -197 378 -287 125
-117 301 -329 372 -448 6 -9 22 -35 36 -57 71 -109 209 -387 209 -418 0 -7 7
-22 15 -33 8 -10 15 -25 15 -32 0 -8 6 -28 13 -45 51 -120 121 -407 137 -567
5 -47 14 -116 19 -155 6 -38 11 -153 11 -255 0 -102 -5 -216 -11 -255 -5 -38
-14 -108 -19 -155 -13 -134 -58 -338 -102 -465 -5 -16 -13 -43 -18 -60 -4 -16
-12 -41 -18 -55 -5 -14 -18 -45 -27 -70 -34 -87 -121 -268 -178 -370 -64 -116
-161 -256 -261 -380 -54 -66 -280 -282 -351 -335 -92 -69 -202 -143 -260 -174
-22 -12 -47 -26 -55 -31 -8 -5 -22 -11 -30 -14 -8 -3 -22 -10 -30 -14 -8 -5
-33 -17 -55 -26 -22 -10 -53 -24 -68 -32 -16 -8 -35 -14 -42 -14 -8 0 -29 -6
-47 -14 -41 -17 -121 -39 -213 -60 -162 -35 -288 -38 -1815 -34 l-1495 3 -3
2545 c-1 1400 0 2551 3 2558 3 9 322 12 1548 12 1328 0 1557 -2 1638 -15z"/>
<path d="M2302 4478 l3 -2203 1355 0 c1380 0 1389 0 1550 36 142 32 180 45
325 114 268 129 503 332 697 604 26 36 52 75 58 86 6 11 19 34 30 50 11 17 31
53 45 80 14 28 30 57 34 65 5 8 24 47 41 85 18 39 37 78 41 87 17 33 67 180
92 268 49 172 64 242 77 360 5 41 14 125 20 185 18 164 5 418 -32 630 -5 33
-13 80 -17 105 -4 25 -13 65 -20 90 -42 151 -45 160 -87 273 -28 73 -92 217
-115 257 -4 8 -20 38 -34 65 -14 28 -35 64 -45 80 -11 17 -23 36 -26 44 -59
120 -332 424 -461 512 -26 18 -50 35 -53 39 -15 18 -142 94 -232 138 -151 74
-212 95 -404 137 -63 13 -246 15 -1458 15 l-1386 0 2 -2202z m2816 1947 c85
-20 168 -44 207 -60 73 -31 173 -81 213 -107 24 -15 45 -28 48 -28 16 0 177
-134 254 -210 71 -71 210 -239 210 -254 0 -3 13 -24 29 -48 81 -122 174 -317
222 -463 72 -224 95 -335 115 -575 22 -269 8 -489 -52 -765 -18 -85 -42 -169
-61 -212 -7 -17 -13 -36 -13 -42 0 -23 -108 -248 -166 -346 -42 -71 -103 -166
-114 -175 -3 -3 -30 -37 -61 -75 -149 -187 -341 -343 -529 -431 -112 -53 -140
-64 -161 -64 -11 0 -29 -5 -40 -11 -11 -5 -79 -19 -152 -30 -126 -18 -187 -19
-1327 -17 l-1195 3 -3 1963 -2 1962 1255 0 c1093 0 1265 -2 1323 -15z"/>
<path d="M2902 6077 c-9 -11 -11 -403 -10 -1608 l3 -1594 1045 -3 c930 -2
1053 -1 1120 14 41 8 90 22 108 30 18 8 39 14 46 14 24 0 150 71 225 127 40
31 100 83 133 116 57 57 196 233 211 267 4 8 16 29 27 45 52 81 128 254 164
370 71 233 81 314 81 630 -1 285 -2 302 -47 485 -6 25 -14 61 -18 80 -8 33
-15 55 -47 145 -36 97 -101 228 -154 309 -22 32 -39 60 -39 63 0 11 -131 171
-181 221 -47 48 -170 146 -224 179 -49 29 -136 66 -235 99 -52 17 -121 19
-1126 22 -912 3 -1072 1 -1082 -11z m2173 -251 c182 -69 300 -158 418 -313 40
-54 76 -105 80 -113 4 -8 16 -28 26 -45 44 -67 102 -202 135 -310 60 -199 76
-319 76 -565 0 -213 -9 -305 -46 -455 -35 -140 -57 -200 -126 -340 -57 -119
-57 -117 -132 -220 -137 -185 -276 -287 -459 -335 -68 -19 -119 -20 -988 -20
-827 0 -917 2 -923 16 -3 9 -6 620 -6 1358 0 1060 3 1345 13 1355 9 9 208 11
947 9 887 -3 938 -4 985 -22z"/>
</g>
</svg>
