<?xml version="1.0" standalone="no"?>
<!DOCTYPE svg PUBLIC "-//W3C//DTD SVG 20010904//EN"
 "http://www.w3.org/TR/2001/REC-SVG-20010904/DTD/svg10.dtd">
<svg version="1.0" xmlns="http://www.w3.org/2000/svg"
 width="300.000000pt" height="300.000000pt" viewBox="0 0 300.000000 300.000000"
 preserveAspectRatio="xMidYMid meet">
<metadata>
Created by potrace 1.10, written by Peter Selinger 2001-2011
</metadata>
<g transform="translate(0.000000,300.000000) scale(0.100000,-0.100000)"
fill="#000000" stroke="none">
<path d="M0 1500 l0 -1500 1500 0 1500 0 0 1500 0 1500 -1500 0 -1500 0 0
-1500z m1852 1103 c167 -47 302 -127 436 -257 247 -239 379 -609 342 -961 -29
-287 -147 -545 -334 -731 -133 -132 -285 -221 -457 -266 -82 -21 -102 -22
-776 -25 l-693 -4 0 1136 0 1136 703 -3 c685 -3 704 -4 779 -25z"/>
<path d="M450 1500 l0 -1050 648 0 c720 0 713 -1 866 69 423 192 666 709 565
1204 -79 392 -339 693 -689 799 -74 22 -83 22 -732 26 l-658 3 0 -1051z m1320
916 c151 -32 263 -97 390 -226 118 -120 192 -254 242 -438 31 -117 36 -337 10
-462 -42 -202 -132 -372 -267 -505 -86 -85 -156 -131 -257 -172 -120 -49 -171
-52 -765 -53 l-553 0 0 935 0 935 568 0 c444 0 581 -3 632 -14z"/>
<path d="M650 1495 l0 -855 503 0 c299 0 528 4 566 11 138 22 243 75 354 179
253 237 343 630 223 983 -82 240 -261 433 -472 507 l-69 25 -552 3 -553 3 0
-856z m1121 715 c202 -62 350 -229 425 -477 24 -78 27 -105 27 -233 0 -118 -4
-160 -22 -225 -63 -233 -216 -416 -406 -487 -59 -22 -72 -22 -542 -26 l-483
-3 0 735 0 736 469 0 c438 0 473 -1 532 -20z"/>
<path d="M850 1495 l0 -655 404 0 c230 0 426 4 457 10 217 41 399 278 428 556
31 306 -102 590 -328 702 l-75 37 -443 3 -443 3 0 -656z m908 510 c109 -51
209 -190 248 -345 23 -93 15 -301 -16 -387 -43 -122 -130 -232 -225 -282 l-50
-26 -372 -3 -373 -3 0 536 0 535 368 0 367 0 53 -25z"/>
<path d="M1050 1495 l0 -455 306 0 c211 0 320 4 348 12 55 16 144 106 179 180
45 94 60 179 54 298 -8 150 -51 264 -134 346 -72 72 -80 74 -435 74 l-318 0 0
-455z"/>
</g>
</svg>
